<svg xmlns="http://www.w3.org/2000/svg" width="74.036" height="113.154" viewBox="0 0 74.036 113.154">
  <g id="bid" transform="translate(-88.501)">
    <g id="Group_19077" data-name="Group 19077" transform="translate(88.501)">
      <path id="Path_61033" data-name="Path 61033" d="M126.569,377a2.21,2.21,0,1,0,2.21,2.211v0A2.209,2.209,0,0,0,126.569,377Z" transform="translate(-116.434 -293.681)" fill="#020288"/>
      <path id="Path_61034" data-name="Path 61034" d="M146.341,256.328a6.631,6.631,0,0,0-3.064-5.587,6.628,6.628,0,0,0-5.776-9.883h-3.694V217.21a2.21,2.21,0,1,0-4.42,0v23.648h-6.63V217.21a2.21,2.21,0,1,0-4.42,0v17.939l-8.059,5.709H90.711a2.21,2.21,0,0,0-2.21,2.21v35.361a2.21,2.21,0,0,0,2.21,2.21h44.58a6.628,6.628,0,0,0,5.776-9.883,6.625,6.625,0,0,0,2.21-8.84,6.631,6.631,0,0,0,3.064-5.587Zm-53.42-11.05H104.35v30.94H92.921Zm46.79,13.26h-2.968a2.21,2.21,0,0,0,0,4.42h.758a2.21,2.21,0,1,1,0,4.42h-2.968a2.21,2.21,0,1,0,0,4.42h.758a2.21,2.21,0,0,1,0,4.42H108.77v-30.94h2.21a2.21,2.21,0,0,0,1.277-.407l6.078-4.305v2.5a2.21,2.21,0,0,0,2.21,2.21H137.5a2.21,2.21,0,0,1,.018,4.42h-.776a2.21,2.21,0,1,0,0,4.42h2.968a2.21,2.21,0,0,1,0,4.42Z" transform="translate(-88.501 -167.484)" fill="#6e1946"/>
      <path id="Path_61035" data-name="Path 61035" d="M250.711,8.84a2.21,2.21,0,0,0,2.21-2.21V2.21a2.21,2.21,0,0,0-4.42,0V6.63A2.21,2.21,0,0,0,250.711,8.84Z" transform="translate(-213.14)" fill="#6e1946"/>
      <path id="Path_61036" data-name="Path 61036" d="M187.6,15.227a2.21,2.21,0,1,0,4.269-1.144l-1.144-4.269a2.21,2.21,0,1,0-4.269,1.144Z" transform="translate(-164.75 -6.368)" fill="#6e1946"/>
      <path id="Path_61037" data-name="Path 61037" d="M307.077,16.789a2.208,2.208,0,0,0,2.707-1.563l1.144-4.27a2.21,2.21,0,1,0-4.269-1.144l-1.144,4.27A2.21,2.21,0,0,0,307.077,16.789Z" transform="translate(-257.495 -6.368)" fill="#6e1946"/>
    </g>
    <path id="Path_61038" data-name="Path 61038" d="M93.5,65h72.931v37.571H93.5Z" transform="translate(-3.895 -50.635)" fill="#6e1946" fill-rule="evenodd" opacity="0.1"/>
    <g id="Group_19078" data-name="Group 19078" transform="translate(106.181 22.1)">
      <path id="Path_61039" data-name="Path 61039" d="M295.131,100h-4.42a2.21,2.21,0,0,0-2.21,2.21v17.68a2.21,2.21,0,0,0,2.21,2.21h4.42a6.637,6.637,0,0,0,6.63-6.63v-8.84A6.637,6.637,0,0,0,295.131,100Zm2.21,15.47a2.212,2.212,0,0,1-2.21,2.21h-2.21V104.42h2.21a2.212,2.212,0,0,1,2.21,2.21Z" transform="translate(-261.981 -100)" fill="#6e1946"/>
      <path id="Path_61040" data-name="Path 61040" d="M175.131,100h-4.42a2.21,2.21,0,0,0-2.21,2.21v17.68a2.21,2.21,0,0,0,2.21,2.21h4.42a6.627,6.627,0,0,0,4.938-11.05A6.627,6.627,0,0,0,175.131,100Zm0,17.68h-2.21v-4.42h2.21a2.21,2.21,0,0,1,0,4.42Zm0-8.84h-2.21v-4.42h2.21a2.21,2.21,0,0,1,0,4.42Z" transform="translate(-168.501 -100)" fill="#6e1946"/>
      <path id="Path_61041" data-name="Path 61041" d="M250.711,100a2.21,2.21,0,0,0-2.21,2.21v17.68a2.21,2.21,0,1,0,4.42,0V102.21A2.21,2.21,0,0,0,250.711,100Z" transform="translate(-230.821 -100)" fill="#6e1946"/>
    </g>
  </g>
</svg>
