<svg xmlns="http://www.w3.org/2000/svg" width="102.206" height="92.054" viewBox="0 0 102.206 92.054">
  <g id="computer" transform="translate(0 -25.429)">
    <g id="Group_19075" data-name="Group 19075" transform="translate(12.023 37.517)">
      <path id="Path_61027" data-name="Path 61027" d="M0,0H48.924V78.159H0Z" transform="translate(78.159) rotate(90)" fill="#6e1946" opacity="0.1"/>
    </g>
    <g id="Group_19076" data-name="Group 19076" transform="translate(0 25.429)">
      <path id="Path_61028" data-name="Path 61028" d="M94.079,25.429H8.126A8.136,8.136,0,0,0,0,33.556V97.388a8.136,8.136,0,0,0,8.126,8.127H41.543v7.975H21.124a2,2,0,1,0,0,3.992H81.082a2,2,0,0,0,0-3.992H60.663v-7.975H94.079a8.136,8.136,0,0,0,8.127-8.127V33.556A8.136,8.136,0,0,0,94.079,25.429ZM56.67,113.49H45.535v-7.975H56.67Zm41.543-16.1a4.139,4.139,0,0,1-4.134,4.134H8.126a4.139,4.139,0,0,1-4.134-4.134V33.556a4.139,4.139,0,0,1,4.134-4.134H94.079a4.139,4.139,0,0,1,4.134,4.134Z" transform="translate(0 -25.429)" fill="#6e1946"/>
      <path id="Path_61029" data-name="Path 61029" d="M244.144,363.061h-2.56a2,2,0,1,0,0,3.992h2.56a2,2,0,1,0,0-3.992Z" transform="translate(-191.761 -295.663)" fill="#6e1946"/>
      <path id="Path_61030" data-name="Path 61030" d="M186.632,151.918a23.48,23.48,0,0,0-16.716,6.914,2,2,0,1,0,2.823,2.823,19.672,19.672,0,0,1,27.786,0,2,2,0,1,0,2.823-2.823A23.479,23.479,0,0,0,186.632,151.918Z" transform="translate(-135.529 -126.668)" fill="#6e1946"/>
      <path id="Path_61031" data-name="Path 61031" d="M211.534,195.9a14.756,14.756,0,0,0-10.505,4.346,2,2,0,0,0,2.823,2.823,10.879,10.879,0,0,1,15.365,0,2,2,0,0,0,2.823-2.823,14.757,14.757,0,0,0-10.505-4.346Z" transform="translate(-160.431 -161.869)" fill="#6e1946"/>
      <path id="Path_61032" data-name="Path 61032" d="M232.142,241.658a2,2,0,1,0,2.823,2.823,2.083,2.083,0,0,1,2.943,0,2,2,0,0,0,2.823-2.823A6.08,6.08,0,0,0,232.142,241.658Z" transform="translate(-185.334 -197.073)" fill="#6e1946"/>
    </g>
  </g>
</svg>
