<svg xmlns="http://www.w3.org/2000/svg" width="310.381" height="93.378" viewBox="0 0 310.381 93.378">
  <path id="logo" d="M-1023.451,529.566l15.231-32.807,11.241,13.47-9.145,20.291h19.462l-25.307,12.97Zm-27.649-1.3,25.774-54.588,11.95,14.306-26.478,55.5Zm-27.65,0,31.049-62.98h-15.115l21.792-13.542,11.247,14.877-37.256,76.868Zm-131.662,12.083,1.24-1.26,1.24,1.26-1.24,1.26Zm-2.92,0,1.239-1.26,1.24,1.26-1.24,1.26Zm-68.96,0,1.239-1.26,1.24,1.26-1.24,1.26Zm-2.921,0,1.24-1.26,1.24,1.26-1.24,1.26Zm153.38-.44a12.724,12.724,0,0,0,3.541-1.94,4.02,4.02,0,0,0,1.56-2.3,11.01,11.01,0,0,1-.57-1.281q-.29-.76-.671-1.9l1.5-.7q.24.741.49,1.48t.391,1.06a3.367,3.367,0,0,0,.339.66,1.581,1.581,0,0,0,.42.42,1.508,1.508,0,0,0,.581.22,4.735,4.735,0,0,0,.82.06,3.122,3.122,0,0,0,.689-.07,1.761,1.761,0,0,0,.561-.229,2.141,2.141,0,0,0,.47-.42,4.055,4.055,0,0,0,.44-.66l1.12-2a5.429,5.429,0,0,1,1.33-1.669,2.478,2.478,0,0,1,1.55-.53,2.379,2.379,0,0,1,1.22.34,3.384,3.384,0,0,1,1.01.92,4.839,4.839,0,0,1,.689,1.35,5.049,5.049,0,0,1,.26,1.63,4.745,4.745,0,0,1-.07.839,1.348,1.348,0,0,0,.22.171,2.865,2.865,0,0,0,1.51.33,4.416,4.416,0,0,0,1.72-.27q.62-.27.62-.751l-.06-9.8,1.58-.281-.08,10.1a1.742,1.742,0,0,0,.85.779,4.222,4.222,0,0,0,1.55.22,7.114,7.114,0,0,0,.841-.05,3.345,3.345,0,0,0,.75-.17,1.509,1.509,0,0,0,.54-.32.639.639,0,0,0,.211-.481l-.06-9.8,1.58-.281-.08,9.921a2.777,2.777,0,0,1-.329,1.409,2.716,2.716,0,0,1-.86.921,3.571,3.571,0,0,1-1.2.5,6.34,6.34,0,0,1-1.39.15h0a5.073,5.073,0,0,1-1.85-.29,2.535,2.535,0,0,1-1.15-.87,2.627,2.627,0,0,1-1.26.87,5.772,5.772,0,0,1-1.92.29,3.851,3.851,0,0,1-1.98-.47,2.7,2.7,0,0,1-.447-.328c-.021.023-.041.046-.063.068a3.015,3.015,0,0,1-2.29.869,4.21,4.21,0,0,1-1.89-.429,4.343,4.343,0,0,1-1.49-1.21,3.359,3.359,0,0,1-1.219,1.15,3.5,3.5,0,0,1-1.62.35,3.892,3.892,0,0,1-2.22-.58,5.746,5.746,0,0,1-1.8,2.631,10.755,10.755,0,0,1-3.46,1.949Zm12.641-6.56-.62,1.2a3.184,3.184,0,0,0,1.17.96,3.391,3.391,0,0,0,1.55.38,1.661,1.661,0,0,0,1.2-.42,1.553,1.553,0,0,0,.44-1.18,2.836,2.836,0,0,0-.149-.92,2.479,2.479,0,0,0-.42-.77,2.079,2.079,0,0,0-.62-.519,1.508,1.508,0,0,0-.73-.19Q-1118.452,531.891-1119.191,533.351Zm-87.8,6.56a13.764,13.764,0,0,0,2-.921,10.085,10.085,0,0,0,1.59-1.09,5.657,5.657,0,0,0,1.05-1.139,1.981,1.981,0,0,0,.38-1.09,3.179,3.179,0,0,0-.14-.821,9.053,9.053,0,0,0-.39-1.09q-.25-.59-.59-1.229t-.719-1.24l1.44-.8a9.207,9.207,0,0,1,1.319,2.48,7.645,7.645,0,0,1,.48,2.54,5,5,0,0,1-1.439,3.45,10.117,10.117,0,0,1-4.061,2.53Zm-58.819,0a13.806,13.806,0,0,0,2-.921,10.12,10.12,0,0,0,1.589-1.09,5.6,5.6,0,0,0,1.05-1.139,1.974,1.974,0,0,0,.38-1.09,4.071,4.071,0,0,0-.29-1.271,15.4,15.4,0,0,0-.79-1.789l1.517-.709,0-.011.014,0,.006,0,0,.005q.253.057.578.1t.71.08q.37.03.76.04c.26.007.51.01.751.01a13.548,13.548,0,0,0,1.679-.1,12.09,12.09,0,0,0,1.44-.26c-.026.2-.057.42-.09.661s-.059.473-.08.7-.036.43-.049.61-.02.31-.02.391a1.433,1.433,0,0,0,.46,1.2,2.577,2.577,0,0,0,1.56.36,11.091,11.091,0,0,0,2.2-.19,4.536,4.536,0,0,0,1.439-.51l-.179-.32-2.78-5.08.26-1.64q1.7-.96,3.44-1.81t3.44-1.551l.319,1.58q-.759.3-1.45.59t-1.409.609q-.721.32-1.5.7t-1.7.84l2.7,4.92a5.868,5.868,0,0,0,.6.9,2.374,2.374,0,0,0,.68.57,2.856,2.856,0,0,0,.87.3,6.631,6.631,0,0,0,1.17.09,7.11,7.11,0,0,0,.84-.05,3.356,3.356,0,0,0,.751-.17,1.525,1.525,0,0,0,.54-.32.641.641,0,0,0,.21-.481l-.06-9.8,1.58-.281-.08,9.921a2.768,2.768,0,0,1-.33,1.409,2.715,2.715,0,0,1-.859.921,3.579,3.579,0,0,1-1.2.5,6.36,6.36,0,0,1-1.391.15,6.568,6.568,0,0,1-2.07-.28,3.644,3.644,0,0,1-1.49-.98q-1.3,1.259-4.54,1.26a4.075,4.075,0,0,1-2.58-.7,2.475,2.475,0,0,1-.879-2.06q0-.34.059-.94a5.342,5.342,0,0,1-.779.11c-.281.02-.567.03-.86.03q-.34,0-.75-.04t-.83-.11c-.13-.022-.259-.045-.385-.069a.151.151,0,0,0,0,.019,7.193,7.193,0,0,1,.24,1.78,5,5,0,0,1-1.44,3.45,10.113,10.113,0,0,1-4.06,2.53Zm-7.08-.06q4.32-.6,4.98-3.14a2.944,2.944,0,0,1-.93.46,3.877,3.877,0,0,1-1.13.16,2.671,2.671,0,0,1-2.12-.92,3.556,3.556,0,0,1-.8-2.42,4.809,4.809,0,0,1,.24-1.55,3.935,3.935,0,0,1,.66-1.23,3,3,0,0,1,1-.81,2.775,2.775,0,0,1,1.26-.29,2.714,2.714,0,0,1,2.43,1.41,7.577,7.577,0,0,1,.87,3.97,5.891,5.891,0,0,1-.41,2.219,5.564,5.564,0,0,1-1.16,1.8,6.222,6.222,0,0,1-1.81,1.291,7.919,7.919,0,0,1-2.36.689Zm1.83-7.42a2.273,2.273,0,0,0-.49,1.52,1.7,1.7,0,0,0,.49,1.3,1.893,1.893,0,0,0,1.35.46,3.731,3.731,0,0,0,1.09-.16,2.463,2.463,0,0,0,.831-.4,5.368,5.368,0,0,0-.59-2.44,1.572,1.572,0,0,0-1.41-.86A1.585,1.585,0,0,0-1271.062,532.431Zm128.96,5.16q-.549-.04-.949-.1l-.381-1.86a10.6,10.6,0,0,0,1.13.15q.61.05,1.17.049a11.3,11.3,0,0,0,1.17-.059q.57-.061,1.01-.15a3.131,3.131,0,0,0,.71-.22c.18-.087.27-.17.27-.25a3,3,0,0,0-.23-1.06,6.855,6.855,0,0,0-.64-1.24,10.643,10.643,0,0,0-.98-1.29,13.326,13.326,0,0,0-1.229-1.23l1.24-1.18a12.014,12.014,0,0,1,1.339,1.4,9.951,9.951,0,0,1,1.021,1.51,8.086,8.086,0,0,1,.65,1.529,5.048,5.048,0,0,1,.23,1.461,2.093,2.093,0,0,1-1.07,1.98,7.531,7.531,0,0,1-3.49.6C-1141.411,537.63-1141.735,537.618-1142.1,537.591Zm-16.94-.17a6.885,6.885,0,0,1-2.13-.66,3.046,3.046,0,0,1-1.239-1.14,3.227,3.227,0,0,1-.4-1.65,6.1,6.1,0,0,1,.3-1.79,9.162,9.162,0,0,1,.82-1.87l1.06.52a8.464,8.464,0,0,0-.49,1.34,4.553,4.553,0,0,0-.17,1.16,2.106,2.106,0,0,0,.29,1.13,2.038,2.038,0,0,0,.93.76,6.092,6.092,0,0,0,1.651.429,18.159,18.159,0,0,0,2.45.14,21.073,21.073,0,0,0,2.11-.1,12.567,12.567,0,0,0,1.72-.28,5.094,5.094,0,0,0,1.159-.41c.287-.153.43-.317.43-.49a5.009,5.009,0,0,0-.09-.88,8.816,8.816,0,0,0-.26-1.05q-.17-.549-.39-1.11a11.252,11.252,0,0,0-.48-1.06l1.44-.8a7.387,7.387,0,0,1,.47,1.09c.139.407.264.821.37,1.24a11.871,11.871,0,0,1,.25,1.27,8.472,8.472,0,0,1,.09,1.18,2.583,2.583,0,0,1-1.661,2.451,12.661,12.661,0,0,1-5.16.789A19.359,19.359,0,0,1-1159.042,537.421Zm-77.18.08a5.149,5.149,0,0,1-1.329-.35l-.26-1.48q.44-.36.9-.821t.91-.969q.45-.51.87-1.05t.779-1.06q-1.019-1.16-2.19-2.26a24.579,24.579,0,0,0-2.35-1.96l1.12-1.34q.5.421,1.05.94t1.11,1.09q.56.57,1.08,1.14t.96,1.09a10.364,10.364,0,0,0,.84-2.51,16.426,16.426,0,0,0,.3-3.09l1.58-.281a15.529,15.529,0,0,1-.47,3.67,12.963,12.963,0,0,1-1.31,3.271,13.577,13.577,0,0,1,1.54,2.25,3.657,3.657,0,0,1,.461,1.61,1.827,1.827,0,0,1-.99,1.66,5.756,5.756,0,0,1-2.87.58A11.478,11.478,0,0,1-1236.222,537.5Zm1.63-3.1a15.551,15.551,0,0,1-1.319,1.41,4.81,4.81,0,0,0,.74.11q.4.031.84.031a4.985,4.985,0,0,0,1.661-.23q.64-.23.64-.589a1.066,1.066,0,0,0-.11-.391,5.933,5.933,0,0,0-.29-.56q-.181-.31-.43-.66t-.55-.71A19.064,19.064,0,0,1-1234.592,534.4Zm100.281,3.091-.1-12.62,1.58-.281-.1,12.9Zm-12.461,0-.1-12.62,1.58-.281-.1,12.9Zm-23.34,0-.1-12.62,1.579-.281-.1,12.9Zm-9.1-.26a9.6,9.6,0,0,1-2.32-.88,9.791,9.791,0,0,1-5.04,1.14,13.38,13.38,0,0,1-2.2-.18,11.977,11.977,0,0,1-2.04-.52,11.977,11.977,0,0,1-2.04.52,13.379,13.379,0,0,1-2.2.18q-3.22,0-3.26-2.8l-.08-9.82,1.58-.281-.08,9.5a1.548,1.548,0,0,0,.43,1.23,2.155,2.155,0,0,0,1.41.37q.579,0,1.12-.02t1.021-.06a3.174,3.174,0,0,1-1.04-2.44,3.847,3.847,0,0,1,.25-1.391,3.625,3.625,0,0,1,.68-1.13,3.265,3.265,0,0,1,1-.76,2.711,2.711,0,0,1,1.21-.28,2.711,2.711,0,0,1,1.21.28,3.251,3.251,0,0,1,1,.76,3.611,3.611,0,0,1,.68,1.13,3.847,3.847,0,0,1,.25,1.391,3.214,3.214,0,0,1-1.04,2.44q.46.04,1,.06c.36.013.741.02,1.14.02q1.021,0,1.85-.08a11.824,11.824,0,0,0,1.589-.26,10.43,10.43,0,0,1-1.35-1.36,17.4,17.4,0,0,1-1.21-1.66l.26-1.481a5.037,5.037,0,0,1,1.7-.81,8.08,8.08,0,0,1,2.219-.29,6.414,6.414,0,0,1,2.95.57,1.714,1.714,0,0,1,1.09,1.53,2.846,2.846,0,0,1-.64,1.64,9.705,9.705,0,0,1-1.86,1.841,8.157,8.157,0,0,0,1.541.29q.779.07,1.84.07a7.11,7.11,0,0,0,.84-.05,3.365,3.365,0,0,0,.751-.17,1.525,1.525,0,0,0,.54-.32.641.641,0,0,0,.21-.481l-.06-9.8,1.58-.281-.08,9.921a2.767,2.767,0,0,1-.33,1.409,2.715,2.715,0,0,1-.859.921,3.575,3.575,0,0,1-1.2.5,6.346,6.346,0,0,1-1.39.15A11.829,11.829,0,0,1-1179.212,537.231Zm-12.32-5.74a1.722,1.722,0,0,0-.59.4,1.9,1.9,0,0,0-.39.6,1.919,1.919,0,0,0-.14.74q0,1.381,1.84,1.98,1.84-.6,1.84-1.98a1.919,1.919,0,0,0-.14-.74,1.9,1.9,0,0,0-.39-.6,1.721,1.721,0,0,0-.59-.4,1.868,1.868,0,0,0-.72-.14A1.868,1.868,0,0,0-1191.532,531.491Zm8.41.1a2.6,2.6,0,0,0-1.09.44,7.548,7.548,0,0,0,.571.78q.329.4.689.77a7.7,7.7,0,0,0,.74.67,6.582,6.582,0,0,0,.72.5,5.139,5.139,0,0,0,.86-.56q.46-.359.85-.73a6.2,6.2,0,0,0,.65-.71,1.037,1.037,0,0,0,.26-.5.415.415,0,0,0-.211-.33,1.989,1.989,0,0,0-.57-.26,5.144,5.144,0,0,0-.84-.17,8.328,8.328,0,0,0-1.021-.059A7.747,7.747,0,0,0-1183.122,531.59Zm-32.89,3.641a3.929,3.929,0,0,1-1.98.48,4.339,4.339,0,0,1-1.27-.18,3.184,3.184,0,0,1-1.031-.52,2.474,2.474,0,0,1-.7-.85,2.493,2.493,0,0,1-.26-1.15,3.252,3.252,0,0,1,1.35-2.62,8.859,8.859,0,0,1,3.77-1.58v-1.219l1.579-.28-.08,6.78a1.479,1.479,0,0,0,.42,1.23,2.2,2.2,0,0,0,1.42.37,6.258,6.258,0,0,0,2.28-.35q.88-.35.88-.83a5.009,5.009,0,0,0-.09-.88,9.01,9.01,0,0,0-.26-1.05q-.17-.549-.39-1.11a11.041,11.041,0,0,0-.481-1.06l1.44-.8a8.186,8.186,0,0,1,.45,1.05q.211.59.38,1.21a10.562,10.562,0,0,1,.26,1.211,7.008,7.008,0,0,1,.09,1.05,2.933,2.933,0,0,1-1.12,2.55,5.9,5.9,0,0,1-3.44.81Q-1215.672,537.491-1216.012,535.231Zm-1.52-4.49a5.71,5.71,0,0,0-1.21.48,2.879,2.879,0,0,0-.841.661,1.236,1.236,0,0,0-.31.81,1.012,1.012,0,0,0,.17.6,1.25,1.25,0,0,0,.47.391,2.544,2.544,0,0,0,.69.22,4.564,4.564,0,0,0,.81.07,4.625,4.625,0,0,0,1.679-.28l-.04-3.22A8.734,8.734,0,0,0-1217.532,530.741Zm-10.82,6.75-.1-12.62,1.579-.281-.1,12.9Zm-54.18-1.34a2.557,2.557,0,0,1-1.31.99,6.045,6.045,0,0,1-2.17.35q-2.88,0-3.22-2.26a3.927,3.927,0,0,1-1.98.48,4.345,4.345,0,0,1-1.27-.18,3.179,3.179,0,0,1-1.03-.52,2.487,2.487,0,0,1-.7-.85,2.494,2.494,0,0,1-.26-1.15,3.251,3.251,0,0,1,1.35-2.62,8.858,8.858,0,0,1,3.77-1.58v-1.219l1.58-.28-.08,6.78a1.478,1.478,0,0,0,.419,1.23,2.2,2.2,0,0,0,1.42.37,4.718,4.718,0,0,0,1.931-.3,1.4,1.4,0,0,0,.789-1l.1-.55q.06-.329.12-.67t.1-.68c.027-.227.053-.427.08-.6l1.36.159q-.1.841-.18,1.54t-.08.86q0,1.241,2.38,1.24a6.257,6.257,0,0,0,2.28-.35q.88-.35.88-.83a5.1,5.1,0,0,0-.09-.88,9.01,9.01,0,0,0-.26-1.05q-.17-.549-.391-1.11a11.008,11.008,0,0,0-.48-1.06l1.44-.8a8.327,8.327,0,0,1,.45,1.05q.211.59.38,1.21a10.562,10.562,0,0,1,.26,1.211,7.024,7.024,0,0,1,.09,1.05,2.935,2.935,0,0,1-1.12,2.55,5.9,5.9,0,0,1-3.44.81Q-1281.752,537.491-1282.531,536.151Zm-8.221-5.41a5.75,5.75,0,0,0-1.21.48,2.872,2.872,0,0,0-.84.661,1.233,1.233,0,0,0-.311.81,1.012,1.012,0,0,0,.17.6,1.249,1.249,0,0,0,.47.391,2.555,2.555,0,0,0,.69.22,4.566,4.566,0,0,0,.81.07,4.633,4.633,0,0,0,1.68-.28l-.041-3.22A8.731,8.731,0,0,0-1290.752,530.741Zm161.741-1.831,1.239-1.26,1.24,1.26-1.24,1.26Zm-27.021-1.02,1.24-1.26,1.24,1.26-1.24,1.26Zm-2.92,0,1.24-1.26,1.239,1.26-1.239,1.26Zm-95.78-1.02,1.239-1.26,1.24,1.26-1.24,1.26Zm-2.921,0,1.24-1.26,1.24,1.26-1.24,1.26Zm67.06-.12,1.24-1.261,1.24,1.261-1.24,1.26Zm-2.92,0,1.24-1.261,1.24,1.261-1.24,1.26Zm-84.84,0,1.24-1.261,1.24,1.261-1.24,1.26Zm61.041-2.021,1.239-1.26,1.24,1.26-1.24,1.26Zm-2.92,0,1.24-1.26,1.24,1.26-1.24,1.26Zm-70.3,0,1.24-1.26,1.24,1.26-1.24,1.26Zm-2.921,0,1.24-1.26,1.24,1.26-1.24,1.26Zm53.761-.66q.279-.1.52-.18c.159-.054.313-.107.46-.16a1.2,1.2,0,0,1-.661-1.1,1.468,1.468,0,0,1,.461-1.09,1.514,1.514,0,0,1,1.1-.45,1.427,1.427,0,0,1,1.12.5l-.4.581a1.219,1.219,0,0,0-.64-.18.925.925,0,0,0-.59.18.559.559,0,0,0-.229.46.583.583,0,0,0,.31.5,1.933,1.933,0,0,0,.83.26q.34-.059.64-.1t.581-.06l-.14.96a13.385,13.385,0,0,0-3.08.6Zm12.97-14.5a10.208,10.208,0,0,1-3.387-1.917,9.616,9.616,0,0,1-2.391-3.138,9.733,9.733,0,0,1-.909-4.308v-9.189h5.354v9.189a4.468,4.468,0,0,0,.448,2.067,4.424,4.424,0,0,0,1.183,1.457,4.831,4.831,0,0,0,1.681.859,6.951,6.951,0,0,0,1.942.274,7.079,7.079,0,0,0,1.955-.274,4.679,4.679,0,0,0,1.681-.859,4.494,4.494,0,0,0,1.171-1.457,4.467,4.467,0,0,0,.448-2.067V471.748h5.378v24.728h8.043a13.464,13.464,0,0,1-.2-1.768q-.05-.971-.049-1.742a12.286,12.286,0,0,1,.747-4.259,13.451,13.451,0,0,1,2.017-3.673,12.206,12.206,0,0,1,2.939-2.727,9.287,9.287,0,0,1,3.511-1.419q1.2-.15,2.665-.224a22.785,22.785,0,0,1,3.075.062,21.34,21.34,0,0,1,3.275.548,14.939,14.939,0,0,1,3.249,1.22,13.87,13.87,0,0,1,2.976,2.066,12.856,12.856,0,0,1,2.465,3.088,17.367,17.367,0,0,1,1.731,4.308,25.352,25.352,0,0,1,.76,5.715h-.05l.024,4.084-32.621.074h-4.682a9.039,9.039,0,0,1-1.3,3.623,9.836,9.836,0,0,1-2.441,2.627,10.453,10.453,0,0,1-3.2,1.606,12.2,12.2,0,0,1-3.574.535A12.1,12.1,0,0,1-1226.722,509.575Zm40.691-20.2a13.282,13.282,0,0,1-.211,2.49,12.767,12.767,0,0,1-.685,2.416,12.327,12.327,0,0,1-1.084,2.142h7.646a15.333,15.333,0,0,0-.635-3.785,9.617,9.617,0,0,0-1.319-2.714,7.565,7.565,0,0,0-1.843-1.831,9.144,9.144,0,0,0-2.179-1.108A9.786,9.786,0,0,1-1186.031,489.379Zm-9.2-2.926a5.4,5.4,0,0,0-1.606,1.183,7.865,7.865,0,0,0-1.282,1.831,8.782,8.782,0,0,0-.8,2.254,5.975,5.975,0,0,0-.062,1.507,4.589,4.589,0,0,0,.361,1.494,3.035,3.035,0,0,0,.884,1.158,2.432,2.432,0,0,0,1.507.5,3.742,3.742,0,0,0,1.769-.722,6.7,6.7,0,0,0,1.543-1.556,8.55,8.55,0,0,0,1.1-2.1,7.041,7.041,0,0,0,.423-2.416,4.442,4.442,0,0,0-.56-2.341,2.089,2.089,0,0,0-1.457-1.071,3.406,3.406,0,0,0-.436-.029A3.217,3.217,0,0,0-1195.232,486.453Zm83.348,15.377h-14.642v-1.818a2.687,2.687,0,0,1-.959,1.308,2.573,2.573,0,0,1-1.581.51h-8.366v-1.818a2.665,2.665,0,0,1-.971,1.308,2.593,2.593,0,0,1-1.57.51h-28.139a2.569,2.569,0,0,1-1.033-.211,2.88,2.88,0,0,1-.859-.573,2.633,2.633,0,0,1-.585-.846,2.557,2.557,0,0,1-.212-1.034,1.071,1.071,0,0,1,.024-.248V471.748h5.33v24.728h9.313V481.385h5.329v15.091h8.143V481.385h5.354v15.091h5.578V481.385h5.329v15.091h5.6V481.385h5.329v15.091h10.583V481.385h5.33v17.532a1.065,1.065,0,0,1,.024.248,2.557,2.557,0,0,1-.212,1.034,2.731,2.731,0,0,1-.572.846,2.688,2.688,0,0,1-.859.573,2.658,2.658,0,0,1-1.046.211Zm9.165-24.33a2.863,2.863,0,0,1-.909-.61,2.862,2.862,0,0,1-.61-.909,2.812,2.812,0,0,1-.224-1.12,2.905,2.905,0,0,1,.224-1.133,2.84,2.84,0,0,1,.61-.922,2.864,2.864,0,0,1,.909-.61,2.812,2.812,0,0,1,1.12-.224,2.909,2.909,0,0,1,1.133.224,2.828,2.828,0,0,1,.921.61,2.84,2.84,0,0,1,.61.922,2.905,2.905,0,0,1,.224,1.133,2.812,2.812,0,0,1-.224,1.12,2.862,2.862,0,0,1-.61.909,2.827,2.827,0,0,1-.921.61,2.908,2.908,0,0,1-1.133.224A2.812,2.812,0,0,1-1102.72,477.5Zm-6.674,0a2.872,2.872,0,0,1-.909-.61,2.862,2.862,0,0,1-.61-.909,2.812,2.812,0,0,1-.224-1.12,2.905,2.905,0,0,1,.224-1.133,2.841,2.841,0,0,1,.61-.922,2.873,2.873,0,0,1,.909-.61,2.819,2.819,0,0,1,1.12-.224,2.9,2.9,0,0,1,1.133.224,2.83,2.83,0,0,1,.922.61,2.841,2.841,0,0,1,.61.922,2.905,2.905,0,0,1,.224,1.133,2.812,2.812,0,0,1-.224,1.12,2.862,2.862,0,0,1-.61.909,2.829,2.829,0,0,1-.922.61,2.9,2.9,0,0,1-1.133.224A2.818,2.818,0,0,1-1109.394,477.5Zm-42.608,0a2.874,2.874,0,0,1-.909-.61,2.864,2.864,0,0,1-.61-.909,2.812,2.812,0,0,1-.224-1.12,2.905,2.905,0,0,1,.224-1.133,2.842,2.842,0,0,1,.61-.922,2.875,2.875,0,0,1,.909-.61,2.815,2.815,0,0,1,1.12-.224,2.9,2.9,0,0,1,1.133.224,2.83,2.83,0,0,1,.922.61,2.841,2.841,0,0,1,.61.922,2.905,2.905,0,0,1,.224,1.133,2.812,2.812,0,0,1-.224,1.12,2.862,2.862,0,0,1-.61.909,2.829,2.829,0,0,1-.922.61,2.9,2.9,0,0,1-1.133.224A2.815,2.815,0,0,1-1152,477.5Zm-6.673,0a2.863,2.863,0,0,1-.909-.61,2.864,2.864,0,0,1-.61-.909,2.814,2.814,0,0,1-.224-1.12,2.907,2.907,0,0,1,.224-1.133,2.843,2.843,0,0,1,.61-.922,2.864,2.864,0,0,1,.909-.61,2.812,2.812,0,0,1,1.12-.224,2.906,2.906,0,0,1,1.133.224,2.841,2.841,0,0,1,.922.61,2.854,2.854,0,0,1,.609.922,2.905,2.905,0,0,1,.224,1.133,2.812,2.812,0,0,1-.224,1.12,2.876,2.876,0,0,1-.609.909,2.84,2.84,0,0,1-.922.61,2.905,2.905,0,0,1-1.133.224A2.812,2.812,0,0,1-1158.675,477.5Z" transform="translate(1294.972 -451.08)" fill="#6e1946" stroke="rgba(0,0,0,0)" stroke-miterlimit="10" stroke-width="1"/>
</svg>
