<svg xmlns="http://www.w3.org/2000/svg" width="101.077" height="96.734" viewBox="0 0 101.077 96.734">
  <g id="price-list" transform="translate(0 -11)">
    <g id="Group_19079" data-name="Group 19079" transform="translate(13.819 42.587)" opacity="0.103">
      <path id="Path_61042" data-name="Path 61042" d="M129.422,171v35.535H84.017V171H70v43.431h73.439V171Z" transform="translate(-70 -171)" fill="#6e1946"/>
    </g>
    <g id="Group_19080" data-name="Group 19080" transform="translate(0 11)">
      <path id="Path_61043" data-name="Path 61043" d="M99.1,91.94H97.129V40.612a7.906,7.906,0,0,0-7.9-7.9H75.215V12.974A1.974,1.974,0,0,0,73.241,11H27.836a1.974,1.974,0,0,0-1.974,1.974V32.716H11.845a7.906,7.906,0,0,0-7.9,7.9V91.94H1.974A1.974,1.974,0,0,0,0,93.915v5.922a7.906,7.906,0,0,0,7.9,7.9H93.18a7.906,7.906,0,0,0,7.9-7.9V93.915A1.974,1.974,0,0,0,99.1,91.94ZM29.81,14.948H71.267v61.2H29.81ZM7.9,40.612a3.953,3.953,0,0,1,3.948-3.948H25.861V76.147H23.887a1.974,1.974,0,1,0,0,3.948h53.3a1.974,1.974,0,1,0,0-3.948H75.215V36.664H89.232a3.953,3.953,0,0,1,3.948,3.948V91.94H7.9ZM97.129,99.837a3.953,3.953,0,0,1-3.948,3.948H7.9a3.953,3.953,0,0,1-3.948-3.948V95.889h93.18Z" transform="translate(0 -11)" fill="#6e1946"/>
      <path id="Path_61044" data-name="Path 61044" d="M229.131,74.546a21.048,21.048,0,0,1-5.365-2.5c-.991-.777-.588-3.38,1.257-3.935a4.471,4.471,0,0,1,4.13.665l-.022-.02,0,0a1.973,1.973,0,0,0,2.732-2.845c-.019-.019-.04-.036-.06-.054l0,0a8.121,8.121,0,0,0-3.523-1.719V62.974a1.974,1.974,0,1,0-3.948,0v1.234q-.224.056-.452.124a6.522,6.522,0,0,0-4.473,5.112,5.8,5.8,0,0,0,1.918,5.711,22.6,22.6,0,0,0,6.486,3.113,2.946,2.946,0,0,1,2.129,3.457,3.809,3.809,0,0,1-3.779,3.213,6.175,6.175,0,0,1-4.432-1.165,1.974,1.974,0,1,0-2.162,3.3,9.385,9.385,0,0,0,4.765,1.753v1.023a1.974,1.974,0,1,0,3.948,0V88.6a7.87,7.87,0,0,0,5.553-6.216,6.923,6.923,0,0,0-4.706-7.834Z" transform="translate(-175.507 -51.129)" fill="#6e1946"/>
      <path id="Path_61045" data-name="Path 61045" d="M182.974,244.948h25.664a1.974,1.974,0,0,0,0-3.948H182.974a1.974,1.974,0,0,0,0,3.948Z" transform="translate(-145.268 -195.594)" fill="#6e1946"/>
      <path id="Path_61046" data-name="Path 61046" d="M182.974,294.948h25.664a1.974,1.974,0,0,0,0-3.948H182.974a1.974,1.974,0,0,0,0,3.948Z" transform="translate(-145.268 -235.724)" fill="#6e1946"/>
    </g>
  </g>
</svg>
